<?xml version="1.0" encoding="iso-8859-1"?>
<!-- Uploaded to: SVG Repo, www.svgrepo.com, Generator: SVG Repo Mixer Tools -->
<svg fill="#000000" height="800px" width="800px" version="1.1" id="Layer_1" xmlns="http://www.w3.org/2000/svg" xmlns:xlink="http://www.w3.org/1999/xlink" 
	 viewBox="0 0 330 330" xml:space="preserve">
<path id="XMLID_491_" d="M319.246,251.85C326.385,235.485,330,218.067,330,200c0-52.602-31.88-99.958-80.012-120.014
	C230.356,33.059,183.968,0,130,0C58.318,0,0,58.318,0,130c0,18.065,3.615,35.483,10.753,51.849L0.222,242.431
	c-0.836,4.809,0.721,9.724,4.172,13.175c2.837,2.837,6.662,4.394,10.605,4.394c0.854,0,1.714-0.073,2.57-0.222l60.581-10.532
	c0.615,0.268,1.234,0.521,1.852,0.78C100.069,298.136,147.412,330,200,330c18.063,0,35.481-3.615,51.85-10.753l60.581,10.532
	c0.856,0.149,1.716,0.222,2.57,0.222c3.942,0,7.768-1.557,10.605-4.394c3.452-3.451,5.008-8.367,4.172-13.176L319.246,251.85z
	 M39.844,173.326C33.312,159.762,30,145.186,30,130C30,74.86,74.86,30,130,30s100,44.86,100,100s-44.859,100-100,100
	c-11.491,0-22.635-1.901-33.256-5.655c-0.028-0.011-0.058-0.021-0.086-0.032c-3.383-1.199-6.715-2.583-9.985-4.157
	c-2.04-0.982-4.265-1.485-6.507-1.485c-0.857,0-1.717,0.073-2.569,0.222l-44.168,7.678l7.679-44.168
	C41.644,179.32,41.202,176.146,39.844,173.326z M288.894,252.402l7.678,44.169l-44.168-7.679c-3.081-0.537-6.257-0.094-9.077,1.264
	C229.761,296.688,215.184,300,200,300c-32.146,0-61.742-15.479-80.293-40.398C123.113,259.865,126.545,260,130,260
	c71.683,0,130-58.318,130-130c0-3.466-0.14-6.9-0.407-10.299C284.518,138.251,300,167.85,300,200
	c0,15.186-3.311,29.762-9.843,43.326C288.8,246.146,288.358,249.319,288.894,252.402z"/>
</svg>