<?xml version="1.0" encoding="iso-8859-1"?>
<!-- Uploaded to: SVG Repo, www.svgrepo.com, Generator: SVG Repo Mixer Tools -->
<svg fill="#000000" height="800px" width="800px" version="1.1" id="Layer_1" xmlns="http://www.w3.org/2000/svg" xmlns:xlink="http://www.w3.org/1999/xlink" 
	 viewBox="0 0 330 330" xml:space="preserve">
<g id="XMLID_463_">
	<path id="XMLID_464_" d="M287.929,104.315C289.284,112.68,290,121.257,290,130c0,88.224-71.775,160-160,160
		c-8.676,0-17.238-0.685-25.654-2.039C128.486,314.154,162.933,330,200,330c18.064,0,35.481-3.615,51.85-10.753l60.581,10.532
		c0.856,0.149,1.716,0.222,2.57,0.222c3.942,0,7.768-1.557,10.605-4.394c3.452-3.451,5.008-8.367,4.172-13.176l-10.532-60.581
		C326.385,235.484,330,218.066,330,200C330,162.917,314.141,128.456,287.929,104.315z"/>
	<path id="XMLID_466_" d="M0.088,134.602c0.025,0.736,0.048,1.473,0.086,2.206c0.023,0.481,0.061,0.96,0.09,1.439
		c0.041,0.647,0.076,1.295,0.125,1.94c0.04,0.511,0.092,1.02,0.137,1.53c0.054,0.61,0.104,1.222,0.166,1.83
		c0.055,0.537,0.122,1.071,0.184,1.607c0.066,0.577,0.129,1.156,0.203,1.732c0.07,0.553,0.154,1.103,0.232,1.654
		c0.079,0.557,0.154,1.115,0.24,1.67c0.087,0.561,0.186,1.119,0.281,1.679c0.091,0.541,0.178,1.083,0.276,1.624
		c0.104,0.568,0.219,1.134,0.33,1.701c0.104,0.528,0.203,1.056,0.314,1.583c0.12,0.574,0.252,1.146,0.38,1.719
		c0.114,0.514,0.226,1.029,0.348,1.542c0.136,0.575,0.283,1.147,0.427,1.72c0.129,0.509,0.253,1.019,0.387,1.526
		c0.152,0.573,0.314,1.144,0.475,1.714c0.14,0.501,0.277,1.004,0.424,1.504c0.168,0.576,0.347,1.149,0.523,1.722
		c0.152,0.492,0.301,0.985,0.459,1.476c0.184,0.573,0.377,1.143,0.57,1.713c0.164,0.489,0.327,0.979,0.498,1.466
		c0.198,0.566,0.406,1.13,0.612,1.694c0.179,0.488,0.356,0.976,0.54,1.462c0.214,0.562,0.436,1.121,0.658,1.681
		c0.191,0.484,0.381,0.968,0.578,1.45c0.228,0.557,0.465,1.11,0.701,1.665c0.281,0.66,0.559,1.321,0.852,1.977L0.175,246.157
		c-0.029,0.17-0.035,0.34-0.058,0.51c0.375,3.339,1.843,6.505,4.276,8.939c2.429,2.429,5.583,3.91,8.913,4.289
		c0.179-0.023,0.358-0.039,0.535-0.069l63.33-11.01c0.664,0.296,1.334,0.577,2.002,0.861c0.275,0.116,0.552,0.233,0.828,0.349
		c0.002,0.003,0.003,0.006,0.004,0.009C95.83,256.649,112.613,260,130,260c71.682,0,130-58.317,130-130
		c0-17.714-3.566-34.61-10.012-50.014c-0.601-1.435-1.228-2.856-1.877-4.265c-0.038-0.081-0.076-0.162-0.113-0.242
		c-1.295-2.789-2.684-5.526-4.166-8.205c-0.049-0.089-0.1-0.177-0.148-0.266c-1.48-2.662-3.052-5.268-4.71-7.811
		c-0.064-0.099-0.13-0.198-0.195-0.296c-1.655-2.523-3.395-4.986-5.216-7.384c-0.083-0.11-0.168-0.219-0.252-0.328
		c-1.815-2.375-3.711-4.686-5.683-6.929c-0.105-0.12-0.212-0.239-0.318-0.359c-1.964-2.218-4.002-4.369-6.111-6.447
		c-0.131-0.129-0.263-0.257-0.395-0.386c-1.038-1.016-2.091-2.018-3.163-2.998c-0.007-0.006-0.013-0.012-0.019-0.018
		c-1.089-0.995-2.197-1.968-3.318-2.926c-0.161-0.137-0.323-0.273-0.484-0.41c-1.092-0.923-2.194-1.832-3.316-2.719
		c-0.018-0.014-0.035-0.028-0.053-0.042c-1.145-0.905-2.31-1.788-3.485-2.654c-0.191-0.141-0.385-0.28-0.576-0.42
		c-1.137-0.829-2.285-1.644-3.45-2.437c-0.03-0.02-0.06-0.042-0.09-0.063c-1.198-0.813-2.413-1.603-3.639-2.377
		c-0.221-0.14-0.442-0.277-0.664-0.415c-1.179-0.734-2.367-1.455-3.571-2.152c-0.043-0.025-0.086-0.052-0.129-0.077
		c-1.245-0.719-2.506-1.414-3.775-2.092c-0.251-0.134-0.502-0.266-0.754-0.398c-1.219-0.641-2.446-1.268-3.688-1.872
		c-0.053-0.026-0.105-0.053-0.158-0.079c-1.289-0.624-2.591-1.222-3.902-1.804c-0.278-0.123-0.558-0.245-0.837-0.367
		c-1.259-0.548-2.525-1.082-3.805-1.591c-0.059-0.023-0.116-0.048-0.175-0.071c-1.328-0.526-2.67-1.025-4.02-1.509
		c-0.304-0.109-0.609-0.216-0.915-0.323c-1.296-0.454-2.599-0.893-3.913-1.306c-0.063-0.019-0.124-0.041-0.186-0.06
		c-1.366-0.427-2.744-0.825-4.128-1.208c-0.326-0.09-0.654-0.178-0.98-0.266c-1.34-0.358-2.684-0.702-4.039-1.019
		c-0.058-0.014-0.115-0.029-0.172-0.043c-1.402-0.325-2.814-0.62-4.233-0.899c-0.345-0.068-0.688-0.134-1.034-0.199
		c-1.385-0.261-2.776-0.507-4.178-0.724c-0.044-0.007-0.088-0.015-0.133-0.022c-1.436-0.221-2.882-0.409-4.333-0.583
		c-0.358-0.043-0.716-0.083-1.075-0.123c-1.434-0.159-2.872-0.302-4.319-0.414c-0.027-0.002-0.055-0.005-0.081-0.007
		c-1.469-0.112-2.945-0.191-4.426-0.254c-0.368-0.016-0.737-0.03-1.106-0.043C132.992,0.035,131.5,0,130,0
		C66.158,0,12.917,46.258,2.034,107.018c-0.382,2.132-0.712,4.282-0.987,6.448c-0.139,1.083-0.264,2.17-0.375,3.261
		c-0.222,2.183-0.39,4.381-0.502,6.593C0.057,125.533,0,127.76,0,130c0,1.141,0.015,2.278,0.043,3.413
		C0.054,133.811,0.075,134.205,0.088,134.602z"/>
</g>
</svg>